{
  "accessors": [
    {
      "bufferView": 2,
      "componentType": 5126,
      "count": 51889,
      "max": [
        0.27899399399757385,
        0.33251699805259705,
        0.63127201795578
      ],
      "min": [
        -0.26364201307296753,
        0.0050050001591444016,
        -0.25667598843574524
      ],
      "type": "VEC3"
    },
    {
      "bufferView": 2,
      "byteOffset": 622668,
      "componentType": 5126,
      "count": 51889,
      "max": [
        0.9999831914901733,
        0.9999872446060181,
        0.9999990463256836
      ],
      "min": [
        -0.9999963045120239,
        -0.9999971389770508,
        -1.0
      ],
      "type": "VEC3"
    },
    {
      "bufferView": 3,
      "componentType": 5126,
      "count": 51889,
      "max": [
        0.9999840259552002,
        0.9999997615814209,
        0.9999990463256836,
        1.0
      ],
      "min": [
        -0.9999954700469971,
        -0.9997983574867249,
        -0.9999991059303284,
        -1.0
      ],
      "type": "VEC4"
    },
    {
      "bufferView": 1,
      "componentType": 5126,
      "count": 51889,
      "max": [
        0.9960938096046448,
        0.9851495027542114
      ],
      "min": [
        0.00390625,
        0.00390625
      ],
      "type": "VEC2"
    },
    {
      "bufferView": 0,
      "componentType": 5125,
      "count": 269280,
      "type": "SCALAR"
    }
  ],
  "asset": {
    "extras": {
      "author": "Sobrom (https://sketchfab.com/Sobrom)",
      "license": "CC-BY-4.0 (http://creativecommons.org/licenses/by/4.0/)",
      "source": "https://sketchfab.com/3d-models/cat-egypt-451b471a2bfa4108839e2d4f167a67c8",
      "title": "Cat egypt"
    },
    "generator": "Sketchfab-16.15.0",
    "version": "2.0"
  },
  "bufferViews": [
    {
      "buffer": 0,
      "byteLength": 1077120,
      "name": "floatBufferViews",
      "target": 34963
    },
    {
      "buffer": 0,
      "byteLength": 415112,
      "byteOffset": 1077120,
      "byteStride": 8,
      "name": "floatBufferViews",
      "target": 34962
    },
    {
      "buffer": 0,
      "byteLength": 1245336,
      "byteOffset": 1492232,
      "byteStride": 12,
      "name": "floatBufferViews",
      "target": 34962
    },
    {
      "buffer": 0,
      "byteLength": 830224,
      "byteOffset": 2737568,
      "byteStride": 16,
      "name": "floatBufferViews",
      "target": 34962
    }
  ],
  "buffers": [
    {
      "byteLength": 3567792,
      "uri": "scene.bin"
    }
  ],
  "extensionsUsed": [
    "KHR_materials_specular"
  ],
  "images": [
    {
      "uri": "textures/Material_0002_baseColor.png"
    },
    {
      "uri": "textures/Material_0002_metallicRoughness.png"
    },
    {
      "uri": "textures/Material_0002_normal.png"
    }
  ],
  "materials": [
    {
      "extensions": {
        "KHR_materials_specular": {
          "specularColorFactor": [
            1.0,
            1.0,
            1.0
          ],
          "specularFactor": 0.4921919762041179
        }
      },
      "name": "Material_0002",
      "normalTexture": {
        "index": 2
      },
      "occlusionTexture": {
        "index": 1
      },
      "pbrMetallicRoughness": {
        "baseColorTexture": {
          "index": 0
        },
        "metallicRoughnessTexture": {
          "index": 1
        }
      }
    }
  ],
  "meshes": [
    {
      "name": "Object_0",
      "primitives": [
        {
          "attributes": {
            "NORMAL": 1,
            "POSITION": 0,
            "TANGENT": 2,
            "TEXCOORD_0": 3
          },
          "indices": 4,
          "material": 0,
          "mode": 4
        }
      ]
    }
  ],
  "nodes": [
    {
      "children": [
        1
      ],
      "matrix": [
        0.5866448879241943,
        0.0,
        0.0,
        0.0,
        0.0,
        1.30261332370417e-16,
        -0.5866448879241943,
        0.0,
        0.0,
        0.5866448879241943,
        1.30261332370417e-16,
        0.0,
        0.0,
        0.0,
        0.0,
        1.0
      ],
      "name": "Sketchfab_model"
    },
    {
      "children": [
        2
      ],
      "name": "Cat_egypt.obj.cleaner.materialmerger.gles"
    },
    {
      "mesh": 0,
      "name": "Object_2"
    }
  ],
  "samplers": [
    {
      "magFilter": 9729,
      "minFilter": 9987,
      "wrapS": 10497,
      "wrapT": 10497
    }
  ],
  "scene": 0,
  "scenes": [
    {
      "name": "Sketchfab_Scene",
      "nodes": [
        0
      ]
    }
  ],
  "textures": [
    {
      "sampler": 0,
      "source": 0
    },
    {
      "sampler": 0,
      "source": 1
    },
    {
      "sampler": 0,
      "source": 2
    }
  ]
}
